<mxfile host="app.diagrams.net" modified="2022-04-26T12:22:44.520Z" agent="5.0 (Windows NT 10.0; Win64; x64) AppleWebKit/537.36 (KHTML, like Gecko) Chrome/100.0.4896.127 Safari/537.36 Edg/100.0.1185.50" etag="umVzm5EReWnTPWXEsOqX" version="17.4.6" type="github">
  <diagram id="iTNfq0sCnRkNE39DYjO4" name="Page-1">
    <mxGraphModel dx="1038" dy="579" grid="1" gridSize="10" guides="1" tooltips="1" connect="1" arrows="1" fold="1" page="1" pageScale="1" pageWidth="850" pageHeight="1100" math="0" shadow="0">
      <root>
        <mxCell id="0" />
        <mxCell id="1" parent="0" />
        <mxCell id="urm9WRpr8ZQr5zMUgPNt-3" value="" style="edgeStyle=orthogonalEdgeStyle;rounded=0;orthogonalLoop=1;jettySize=auto;html=1;" edge="1" parent="1" source="urm9WRpr8ZQr5zMUgPNt-1" target="urm9WRpr8ZQr5zMUgPNt-2">
          <mxGeometry relative="1" as="geometry" />
        </mxCell>
        <mxCell id="urm9WRpr8ZQr5zMUgPNt-9" value="" style="edgeStyle=orthogonalEdgeStyle;rounded=0;orthogonalLoop=1;jettySize=auto;html=1;" edge="1" parent="1" source="urm9WRpr8ZQr5zMUgPNt-1" target="urm9WRpr8ZQr5zMUgPNt-8">
          <mxGeometry relative="1" as="geometry" />
        </mxCell>
        <mxCell id="urm9WRpr8ZQr5zMUgPNt-1" value="start" style="rounded=1;whiteSpace=wrap;html=1;" vertex="1" parent="1">
          <mxGeometry x="350" y="10" width="110" height="30" as="geometry" />
        </mxCell>
        <mxCell id="urm9WRpr8ZQr5zMUgPNt-5" value="" style="edgeStyle=orthogonalEdgeStyle;rounded=0;orthogonalLoop=1;jettySize=auto;html=1;" edge="1" parent="1" source="urm9WRpr8ZQr5zMUgPNt-2" target="urm9WRpr8ZQr5zMUgPNt-4">
          <mxGeometry relative="1" as="geometry" />
        </mxCell>
        <mxCell id="urm9WRpr8ZQr5zMUgPNt-2" value="construct the game entry exit object" style="whiteSpace=wrap;html=1;rounded=1;" vertex="1" parent="1">
          <mxGeometry x="170" y="70" width="120" height="60" as="geometry" />
        </mxCell>
        <mxCell id="urm9WRpr8ZQr5zMUgPNt-4" value="initialize the left and right array" style="whiteSpace=wrap;html=1;rounded=1;" vertex="1" parent="1">
          <mxGeometry x="170" y="160" width="120" height="60" as="geometry" />
        </mxCell>
        <mxCell id="urm9WRpr8ZQr5zMUgPNt-13" value="" style="edgeStyle=orthogonalEdgeStyle;rounded=0;orthogonalLoop=1;jettySize=auto;html=1;" edge="1" parent="1" source="urm9WRpr8ZQr5zMUgPNt-8" target="urm9WRpr8ZQr5zMUgPNt-12">
          <mxGeometry relative="1" as="geometry" />
        </mxCell>
        <mxCell id="urm9WRpr8ZQr5zMUgPNt-8" value="FOR game arena players" style="rhombus;whiteSpace=wrap;html=1;" vertex="1" parent="1">
          <mxGeometry x="365" y="70" width="80" height="60" as="geometry" />
        </mxCell>
        <mxCell id="urm9WRpr8ZQr5zMUgPNt-15" value="" style="edgeStyle=orthogonalEdgeStyle;rounded=0;orthogonalLoop=1;jettySize=auto;html=1;" edge="1" parent="1" source="urm9WRpr8ZQr5zMUgPNt-12" target="urm9WRpr8ZQr5zMUgPNt-14">
          <mxGeometry relative="1" as="geometry" />
        </mxCell>
        <mxCell id="urm9WRpr8ZQr5zMUgPNt-12" value="IF data is player 1 or 2" style="rhombus;whiteSpace=wrap;html=1;" vertex="1" parent="1">
          <mxGeometry x="365" y="150" width="80" height="80" as="geometry" />
        </mxCell>
        <mxCell id="urm9WRpr8ZQr5zMUgPNt-17" value="" style="edgeStyle=orthogonalEdgeStyle;rounded=0;orthogonalLoop=1;jettySize=auto;html=1;" edge="1" parent="1" source="urm9WRpr8ZQr5zMUgPNt-14" target="urm9WRpr8ZQr5zMUgPNt-16">
          <mxGeometry relative="1" as="geometry" />
        </mxCell>
        <mxCell id="urm9WRpr8ZQr5zMUgPNt-14" value="FOR each player zone" style="rhombus;whiteSpace=wrap;html=1;" vertex="1" parent="1">
          <mxGeometry x="365" y="260" width="80" height="80" as="geometry" />
        </mxCell>
        <mxCell id="urm9WRpr8ZQr5zMUgPNt-19" value="" style="edgeStyle=orthogonalEdgeStyle;rounded=0;orthogonalLoop=1;jettySize=auto;html=1;" edge="1" parent="1" source="urm9WRpr8ZQr5zMUgPNt-16">
          <mxGeometry relative="1" as="geometry">
            <mxPoint x="530" y="40" as="targetPoint" />
            <Array as="points">
              <mxPoint x="490" y="410" />
              <mxPoint x="490" y="40" />
            </Array>
          </mxGeometry>
        </mxCell>
        <mxCell id="urm9WRpr8ZQr5zMUgPNt-32" value="" style="edgeStyle=orthogonalEdgeStyle;rounded=0;orthogonalLoop=1;jettySize=auto;html=1;" edge="1" parent="1" source="urm9WRpr8ZQr5zMUgPNt-16" target="urm9WRpr8ZQr5zMUgPNt-31">
          <mxGeometry relative="1" as="geometry" />
        </mxCell>
        <mxCell id="urm9WRpr8ZQr5zMUgPNt-16" value="IF zone 1 or 2" style="rhombus;whiteSpace=wrap;html=1;" vertex="1" parent="1">
          <mxGeometry x="365" y="370" width="80" height="80" as="geometry" />
        </mxCell>
        <mxCell id="urm9WRpr8ZQr5zMUgPNt-22" value="" style="edgeStyle=orthogonalEdgeStyle;rounded=0;orthogonalLoop=1;jettySize=auto;html=1;" edge="1" parent="1" source="urm9WRpr8ZQr5zMUgPNt-20" target="urm9WRpr8ZQr5zMUgPNt-21">
          <mxGeometry relative="1" as="geometry" />
        </mxCell>
        <mxCell id="urm9WRpr8ZQr5zMUgPNt-20" value="FOR zone entry" style="rhombus;whiteSpace=wrap;html=1;" vertex="1" parent="1">
          <mxGeometry x="530" width="80" height="80" as="geometry" />
        </mxCell>
        <mxCell id="urm9WRpr8ZQr5zMUgPNt-24" value="" style="edgeStyle=orthogonalEdgeStyle;rounded=0;orthogonalLoop=1;jettySize=auto;html=1;" edge="1" parent="1" source="urm9WRpr8ZQr5zMUgPNt-21" target="urm9WRpr8ZQr5zMUgPNt-23">
          <mxGeometry relative="1" as="geometry" />
        </mxCell>
        <mxCell id="urm9WRpr8ZQr5zMUgPNt-21" value="find left and right distance from the boundary" style="whiteSpace=wrap;html=1;" vertex="1" parent="1">
          <mxGeometry x="510" y="110" width="120" height="60" as="geometry" />
        </mxCell>
        <mxCell id="urm9WRpr8ZQr5zMUgPNt-28" value="" style="edgeStyle=orthogonalEdgeStyle;rounded=0;orthogonalLoop=1;jettySize=auto;html=1;" edge="1" parent="1" source="urm9WRpr8ZQr5zMUgPNt-23" target="urm9WRpr8ZQr5zMUgPNt-27">
          <mxGeometry relative="1" as="geometry" />
        </mxCell>
        <mxCell id="urm9WRpr8ZQr5zMUgPNt-30" value="else" style="edgeStyle=orthogonalEdgeStyle;rounded=0;orthogonalLoop=1;jettySize=auto;html=1;" edge="1" parent="1" source="urm9WRpr8ZQr5zMUgPNt-23" target="urm9WRpr8ZQr5zMUgPNt-29">
          <mxGeometry relative="1" as="geometry" />
        </mxCell>
        <mxCell id="urm9WRpr8ZQr5zMUgPNt-23" value="IF left dist &amp;lt; right" style="rhombus;whiteSpace=wrap;html=1;" vertex="1" parent="1">
          <mxGeometry x="530" y="200" width="80" height="80" as="geometry" />
        </mxCell>
        <mxCell id="urm9WRpr8ZQr5zMUgPNt-27" value="store the entry point into left" style="rounded=1;whiteSpace=wrap;html=1;" vertex="1" parent="1">
          <mxGeometry x="510" y="310" width="120" height="60" as="geometry" />
        </mxCell>
        <mxCell id="urm9WRpr8ZQr5zMUgPNt-29" value="store the entry point into right" style="rounded=1;whiteSpace=wrap;html=1;" vertex="1" parent="1">
          <mxGeometry x="670" y="210" width="120" height="60" as="geometry" />
        </mxCell>
        <mxCell id="urm9WRpr8ZQr5zMUgPNt-34" value="" style="edgeStyle=orthogonalEdgeStyle;rounded=0;orthogonalLoop=1;jettySize=auto;html=1;" edge="1" parent="1" source="urm9WRpr8ZQr5zMUgPNt-31" target="urm9WRpr8ZQr5zMUgPNt-33">
          <mxGeometry relative="1" as="geometry" />
        </mxCell>
        <mxCell id="urm9WRpr8ZQr5zMUgPNt-31" value="FOR zone exit" style="rhombus;whiteSpace=wrap;html=1;" vertex="1" parent="1">
          <mxGeometry x="530" y="430" width="80" height="80" as="geometry" />
        </mxCell>
        <mxCell id="urm9WRpr8ZQr5zMUgPNt-36" value="" style="edgeStyle=orthogonalEdgeStyle;rounded=0;orthogonalLoop=1;jettySize=auto;html=1;" edge="1" parent="1" source="urm9WRpr8ZQr5zMUgPNt-33" target="urm9WRpr8ZQr5zMUgPNt-35">
          <mxGeometry relative="1" as="geometry" />
        </mxCell>
        <mxCell id="urm9WRpr8ZQr5zMUgPNt-33" value="find left and right distance from the boundary" style="whiteSpace=wrap;html=1;" vertex="1" parent="1">
          <mxGeometry x="510" y="530" width="120" height="60" as="geometry" />
        </mxCell>
        <mxCell id="urm9WRpr8ZQr5zMUgPNt-39" value="" style="edgeStyle=orthogonalEdgeStyle;rounded=0;orthogonalLoop=1;jettySize=auto;html=1;" edge="1" parent="1" source="urm9WRpr8ZQr5zMUgPNt-35" target="urm9WRpr8ZQr5zMUgPNt-38">
          <mxGeometry relative="1" as="geometry" />
        </mxCell>
        <mxCell id="urm9WRpr8ZQr5zMUgPNt-41" value="else" style="edgeStyle=orthogonalEdgeStyle;rounded=0;orthogonalLoop=1;jettySize=auto;html=1;" edge="1" parent="1" source="urm9WRpr8ZQr5zMUgPNt-35" target="urm9WRpr8ZQr5zMUgPNt-40">
          <mxGeometry relative="1" as="geometry" />
        </mxCell>
        <mxCell id="urm9WRpr8ZQr5zMUgPNt-35" value="IF left dist &amp;lt; right" style="rhombus;whiteSpace=wrap;html=1;" vertex="1" parent="1">
          <mxGeometry x="530" y="610" width="80" height="80" as="geometry" />
        </mxCell>
        <mxCell id="urm9WRpr8ZQr5zMUgPNt-38" value="store the exit point into left" style="rounded=1;whiteSpace=wrap;html=1;" vertex="1" parent="1">
          <mxGeometry x="510" y="720" width="120" height="60" as="geometry" />
        </mxCell>
        <mxCell id="urm9WRpr8ZQr5zMUgPNt-40" value="store the exit point into right" style="rounded=1;whiteSpace=wrap;html=1;" vertex="1" parent="1">
          <mxGeometry x="680" y="620" width="120" height="60" as="geometry" />
        </mxCell>
      </root>
    </mxGraphModel>
  </diagram>
</mxfile>
